<?xml version="1.0" encoding="UTF-8" standalone="no"?>
<!DOCTYPE svg PUBLIC "-//W3C//DTD SVG 1.1//EN"
 "http://www.w3.org/Graphics/SVG/1.1/DTD/svg11.dtd">
<!-- Generated by graphviz version 2.28.0 (20120716.1447)
 -->
<!-- Title: G Pages: 1 -->
<svg width="682pt" height="2508pt"
 viewBox="0.00 0.00 682.00 2508.00" xmlns="http://www.w3.org/2000/svg" xmlns:xlink="http://www.w3.org/1999/xlink">
<g id="graph1" class="graph" transform="scale(1 1) rotate(0) translate(4 2504)">
<title>G</title>
<polygon fill="white" stroke="white" points="-4,5 -4,-2504 679,-2504 679,5 -4,5"/>
<g id="graph2" class="cluster"><title>cluster_global</title>
<polyline fill="none" stroke="gray" points="20,-44 654,-44 "/>
<path fill="none" stroke="gray" d="M654,-44C660,-44 666,-50 666,-56"/>
<polyline fill="none" stroke="gray" points="666,-56 666,-2480 "/>
<path fill="none" stroke="gray" d="M666,-2480C666,-2486 660,-2492 654,-2492"/>
<polyline fill="none" stroke="gray" points="654,-2492 20,-2492 "/>
<path fill="none" stroke="gray" d="M20,-2492C14,-2492 8,-2486 8,-2480"/>
<polyline fill="none" stroke="gray" points="8,-2480 8,-56 "/>
<path fill="none" stroke="gray" d="M8,-56C8,-50 14,-44 20,-44"/>
<text text-anchor="middle" x="337" y="-2479.2" font-family="Times,serif" font-size="11.00" fill="gray">global</text>
</g>
<!-- \\JGithubObject -->
<g id="node2" class="node"><title>\\JGithubObject</title>
<a xlink:href="object.html" xlink:title="«abstract»&lt;br/&gt;JGithubObject" target="_parent">
<polygon fill="none" stroke="black" points="121.5,-1276 16.5,-1276 16.5,-1240 121.5,-1240 121.5,-1276"/>
<text text-anchor="start" x="35" y="-1261.7" font-family="Courier,monospace" font-size="11.00">«abstract»</text>
<text text-anchor="start" x="25" y="-1250.7" font-family="Courier,monospace" font-size="11.00">JGithubObject</text>
</a>
</g>
<!-- \\JGithubHttp -->
<g id="node3" class="node"><title>\\JGithubHttp</title>
<a xlink:href="http.html" xlink:title="JGithubHttp" target="_parent">
<polygon fill="none" stroke="black" points="563.5,-88 472.5,-88 472.5,-52 563.5,-52 563.5,-88"/>
<text text-anchor="middle" x="518" y="-67.2" font-family="Courier,monospace" font-size="11.00">JGithubHttp</text>
</a>
</g>
<!-- \\JHttp -->
<g id="node50" class="node"><title>\\JHttp</title>
<ellipse fill="none" stroke="black" cx="250" cy="-18" rx="39.7935" ry="18"/>
<text text-anchor="middle" x="250" y="-14.3" font-family="Times,serif" font-size="14.00" fill="gray">\JHttp</text>
</g>
<!-- \\JGithubHttp&#45;&gt;\\JHttp -->
<g id="edge3" class="edge"><title>\\JGithubHttp&#45;&gt;\\JHttp</title>
<path fill="none" stroke="black" d="M472.478,-61.2964C423.737,-51.7681 345.981,-36.5678 296.757,-26.945"/>
<polygon fill="none" stroke="black" points="297.192,-23.4639 286.707,-24.9803 295.849,-30.3339 297.192,-23.4639"/>
</g>
<!-- \\JGithubPackage -->
<g id="node4" class="node"><title>\\JGithubPackage</title>
<a xlink:href="package.html" xlink:title="«abstract»&lt;br/&gt;JGithubPackage" target="_parent">
<polygon fill="none" stroke="black" points="306,-1276 194,-1276 194,-1240 306,-1240 306,-1276"/>
<text text-anchor="start" x="216" y="-1261.7" font-family="Courier,monospace" font-size="11.00">«abstract»</text>
<text text-anchor="start" x="202.5" y="-1250.7" font-family="Courier,monospace" font-size="11.00">JGithubPackage</text>
</a>
</g>
<!-- \\JGithubPackage&#45;&gt;\\JGithubObject -->
<g id="edge5" class="edge"><title>\\JGithubPackage&#45;&gt;\\JGithubObject</title>
<path fill="none" stroke="black" d="M193.834,-1258C174.149,-1258 151.853,-1258 131.658,-1258"/>
<polygon fill="none" stroke="black" points="131.624,-1254.5 121.624,-1258 131.624,-1261.5 131.624,-1254.5"/>
</g>
<!-- \\JGithub -->
<g id="node5" class="node"><title>\\JGithub</title>
<a xlink:href="github.html" xlink:title="JGithub" target="_parent">
<polygon fill="none" stroke="black" points="550,-2410 486,-2410 486,-2374 550,-2374 550,-2410"/>
<text text-anchor="middle" x="518" y="-2389.2" font-family="Courier,monospace" font-size="11.00">JGithub</text>
</a>
</g>
<!-- \\JGithubPackageMarkdown -->
<g id="node6" class="node"><title>\\JGithubPackageMarkdown</title>
<a xlink:href="package.markdown.html" xlink:title="JGithubPackageMarkdown" target="_parent">
<polygon fill="none" stroke="black" points="600.5,-2302 435.5,-2302 435.5,-2266 600.5,-2266 600.5,-2302"/>
<text text-anchor="middle" x="518" y="-2281.2" font-family="Courier,monospace" font-size="11.00">JGithubPackageMarkdown</text>
</a>
</g>
<!-- \\JGithubPackageMarkdown&#45;&gt;\\JGithubPackage -->
<g id="edge7" class="edge"><title>\\JGithubPackageMarkdown&#45;&gt;\\JGithubPackage</title>
<path fill="none" stroke="black" d="M435.451,-2284.84C414.074,-2281.01 392.873,-2272.88 378,-2257 309.575,-2183.95 261.942,-1442.18 252.656,-1286.55"/>
<polygon fill="none" stroke="black" points="256.139,-1286.15 252.054,-1276.37 249.151,-1286.56 256.139,-1286.15"/>
</g>
<!-- \\JGithubPackageGistsComments -->
<g id="node7" class="node"><title>\\JGithubPackageGistsComments</title>
<a xlink:href="package.gists.comments.html" xlink:title="JGithubPackageGistsComments" target="_parent">
<polygon fill="none" stroke="black" points="617.5,-2248 418.5,-2248 418.5,-2212 617.5,-2212 617.5,-2248"/>
<text text-anchor="middle" x="518" y="-2227.2" font-family="Courier,monospace" font-size="11.00">JGithubPackageGistsComments</text>
</a>
</g>
<!-- \\JGithubPackageGistsComments&#45;&gt;\\JGithubPackage -->
<g id="edge9" class="edge"><title>\\JGithubPackageGistsComments&#45;&gt;\\JGithubPackage</title>
<path fill="none" stroke="black" d="M418.29,-2226.64C403.102,-2221.97 388.881,-2214.53 378,-2203 249.024,-2066.28 248.933,-1428.54 250.558,-1286.21"/>
<polygon fill="none" stroke="black" points="254.059,-1286.16 250.687,-1276.12 247.06,-1286.07 254.059,-1286.16"/>
</g>
<!-- \\JGithubPackageOrgs -->
<g id="node8" class="node"><title>\\JGithubPackageOrgs</title>
<a xlink:href="package.orgs.html" xlink:title="JGithubPackageOrgs" target="_parent">
<polygon fill="none" stroke="black" points="587,-2194 449,-2194 449,-2158 587,-2158 587,-2194"/>
<text text-anchor="middle" x="518" y="-2173.2" font-family="Courier,monospace" font-size="11.00">JGithubPackageOrgs</text>
</a>
</g>
<!-- \\JGithubPackageOrgs&#45;&gt;\\JGithubPackage -->
<g id="edge11" class="edge"><title>\\JGithubPackageOrgs&#45;&gt;\\JGithubPackage</title>
<path fill="none" stroke="black" d="M448.971,-2178.58C423.383,-2175.91 396.126,-2168.06 378,-2149 256.26,-2020.98 250.498,-1423.94 250.811,-1286.34"/>
<polygon fill="none" stroke="black" points="254.312,-1286.2 250.848,-1276.19 247.312,-1286.18 254.312,-1286.2"/>
</g>
<!-- \\JGithubPackageDataBlobs -->
<g id="node9" class="node"><title>\\JGithubPackageDataBlobs</title>
<a xlink:href="package.data.blobs.html" xlink:title="JGithubPackageDataBlobs" target="_parent">
<polygon fill="none" stroke="black" points="604,-2140 432,-2140 432,-2104 604,-2104 604,-2140"/>
<text text-anchor="middle" x="518" y="-2119.2" font-family="Courier,monospace" font-size="11.00">JGithubPackageDataBlobs</text>
</a>
</g>
<!-- \\JGithubPackageDataBlobs&#45;&gt;\\JGithubPackage -->
<g id="edge13" class="edge"><title>\\JGithubPackageDataBlobs&#45;&gt;\\JGithubPackage</title>
<path fill="none" stroke="black" d="M431.714,-2121.84C411.705,-2117.74 392.127,-2109.72 378,-2095 263.433,-1975.6 252.153,-1418.7 251.097,-1286.3"/>
<polygon fill="none" stroke="black" points="254.596,-1286.13 251.03,-1276.16 247.597,-1286.18 254.596,-1286.13"/>
</g>
<!-- \\JGithubPackageDataRefs -->
<g id="node10" class="node"><title>\\JGithubPackageDataRefs</title>
<a xlink:href="package.data.refs.html" xlink:title="JGithubPackageDataRefs" target="_parent">
<polygon fill="none" stroke="black" points="600.5,-2086 435.5,-2086 435.5,-2050 600.5,-2050 600.5,-2086"/>
<text text-anchor="middle" x="518" y="-2065.2" font-family="Courier,monospace" font-size="11.00">JGithubPackageDataRefs</text>
</a>
</g>
<!-- \\JGithubPackageDataRefs&#45;&gt;\\JGithubPackage -->
<g id="edge15" class="edge"><title>\\JGithubPackageDataRefs&#45;&gt;\\JGithubPackage</title>
<path fill="none" stroke="black" d="M435.437,-2068.45C414.188,-2064.58 393.057,-2056.53 378,-2041 270.54,-1930.15 253.894,-1412.84 251.417,-1286.09"/>
<polygon fill="none" stroke="black" points="254.916,-1285.95 251.235,-1276.02 247.917,-1286.08 254.916,-1285.95"/>
</g>
<!-- \\JGithubPackageDataTrees -->
<g id="node11" class="node"><title>\\JGithubPackageDataTrees</title>
<a xlink:href="package.data.trees.html" xlink:title="JGithubPackageDataTrees" target="_parent">
<polygon fill="none" stroke="black" points="604,-2032 432,-2032 432,-1996 604,-1996 604,-2032"/>
<text text-anchor="middle" x="518" y="-2011.2" font-family="Courier,monospace" font-size="11.00">JGithubPackageDataTrees</text>
</a>
</g>
<!-- \\JGithubPackageDataTrees&#45;&gt;\\JGithubPackage -->
<g id="edge17" class="edge"><title>\\JGithubPackageDataTrees&#45;&gt;\\JGithubPackage</title>
<path fill="none" stroke="black" d="M431.934,-2013.63C411.922,-2009.53 392.287,-2001.57 378,-1987 277.791,-1884.83 255.813,-1408.35 251.798,-1286.46"/>
<polygon fill="none" stroke="black" points="255.285,-1285.98 251.473,-1276.1 248.288,-1286.2 255.285,-1285.98"/>
</g>
<!-- \\JGithubPackageDataCommits -->
<g id="node12" class="node"><title>\\JGithubPackageDataCommits</title>
<a xlink:href="package.data.commits.html" xlink:title="JGithubPackageDataCommits" target="_parent">
<polygon fill="none" stroke="black" points="610.5,-1978 425.5,-1978 425.5,-1942 610.5,-1942 610.5,-1978"/>
<text text-anchor="middle" x="518" y="-1957.2" font-family="Courier,monospace" font-size="11.00">JGithubPackageDataCommits</text>
</a>
</g>
<!-- \\JGithubPackageDataCommits&#45;&gt;\\JGithubPackage -->
<g id="edge19" class="edge"><title>\\JGithubPackageDataCommits&#45;&gt;\\JGithubPackage</title>
<path fill="none" stroke="black" d="M425.217,-1957.94C407.621,-1953.5 390.739,-1945.81 378,-1933 284.85,-1839.3 257.804,-1402.03 252.217,-1286.21"/>
<polygon fill="none" stroke="black" points="255.705,-1285.85 251.742,-1276.03 248.712,-1286.18 255.705,-1285.85"/>
</g>
<!-- \\JGithubPackageDataTags -->
<g id="node13" class="node"><title>\\JGithubPackageDataTags</title>
<a xlink:href="package.data.tags.html" xlink:title="JGithubPackageDataTags" target="_parent">
<polygon fill="none" stroke="black" points="600.5,-1924 435.5,-1924 435.5,-1888 600.5,-1888 600.5,-1924"/>
<text text-anchor="middle" x="518" y="-1903.2" font-family="Courier,monospace" font-size="11.00">JGithubPackageDataTags</text>
</a>
</g>
<!-- \\JGithubPackageDataTags&#45;&gt;\\JGithubPackage -->
<g id="edge21" class="edge"><title>\\JGithubPackageDataTags&#45;&gt;\\JGithubPackage</title>
<path fill="none" stroke="black" d="M435.481,-1905.98C414.36,-1902.08 393.285,-1894.13 378,-1879 291.919,-1793.76 259.966,-1395.81 252.708,-1286.08"/>
<polygon fill="none" stroke="black" points="256.201,-1285.86 252.064,-1276.1 249.216,-1286.31 256.201,-1285.86"/>
</g>
<!-- \\JGithubPackageUsersFollowers -->
<g id="node14" class="node"><title>\\JGithubPackageUsersFollowers</title>
<a xlink:href="package.users.followers.html" xlink:title="JGithubPackageUsersFollowers" target="_parent">
<polygon fill="none" stroke="black" points="621,-1870 415,-1870 415,-1834 621,-1834 621,-1870"/>
<text text-anchor="middle" x="518" y="-1849.2" font-family="Courier,monospace" font-size="11.00">JGithubPackageUsersFollowers</text>
</a>
</g>
<!-- \\JGithubPackageUsersFollowers&#45;&gt;\\JGithubPackage -->
<g id="edge23" class="edge"><title>\\JGithubPackageUsersFollowers&#45;&gt;\\JGithubPackage</title>
<path fill="none" stroke="black" d="M414.872,-1846.48C401.171,-1841.88 388.313,-1835.02 378,-1825 299.05,-1748.27 262.404,-1390.18 253.318,-1286.31"/>
<polygon fill="none" stroke="black" points="256.797,-1285.93 252.456,-1276.26 249.823,-1286.52 256.797,-1285.93"/>
</g>
<!-- \\JGithubPackageUsersKeys -->
<g id="node15" class="node"><title>\\JGithubPackageUsersKeys</title>
<a xlink:href="package.users.keys.html" xlink:title="JGithubPackageUsersKeys" target="_parent">
<polygon fill="none" stroke="black" points="604,-1816 432,-1816 432,-1780 604,-1780 604,-1816"/>
<text text-anchor="middle" x="518" y="-1795.2" font-family="Courier,monospace" font-size="11.00">JGithubPackageUsersKeys</text>
</a>
</g>
<!-- \\JGithubPackageUsersKeys&#45;&gt;\\JGithubPackage -->
<g id="edge25" class="edge"><title>\\JGithubPackageUsersKeys&#45;&gt;\\JGithubPackage</title>
<path fill="none" stroke="black" d="M431.898,-1796.78C412.124,-1792.65 392.612,-1784.89 378,-1771 306.045,-1702.61 264.994,-1383.31 254.013,-1286.13"/>
<polygon fill="none" stroke="black" points="257.488,-1285.72 252.905,-1276.17 250.531,-1286.49 257.488,-1285.72"/>
</g>
<!-- \\JGithubPackageUsersEmails -->
<g id="node16" class="node"><title>\\JGithubPackageUsersEmails</title>
<a xlink:href="package.users.emails.html" xlink:title="JGithubPackageUsersEmails" target="_parent">
<polygon fill="none" stroke="black" points="610.5,-1762 425.5,-1762 425.5,-1726 610.5,-1726 610.5,-1762"/>
<text text-anchor="middle" x="518" y="-1741.2" font-family="Courier,monospace" font-size="11.00">JGithubPackageUsersEmails</text>
</a>
</g>
<!-- \\JGithubPackageUsersEmails&#45;&gt;\\JGithubPackage -->
<g id="edge27" class="edge"><title>\\JGithubPackageUsersEmails&#45;&gt;\\JGithubPackage</title>
<path fill="none" stroke="black" d="M425.299,-1740.92C407.907,-1736.51 391.085,-1729.1 378,-1717 313.034,-1656.92 267.921,-1376.42 254.88,-1286.1"/>
<polygon fill="none" stroke="black" points="258.324,-1285.46 253.449,-1276.05 251.394,-1286.45 258.324,-1285.46"/>
</g>
<!-- \\JGithubPackageOrgsTeams -->
<g id="node17" class="node"><title>\\JGithubPackageOrgsTeams</title>
<a xlink:href="package.orgs.teams.html" xlink:title="JGithubPackageOrgsTeams" target="_parent">
<polygon fill="none" stroke="black" points="604,-1708 432,-1708 432,-1672 604,-1672 604,-1708"/>
<text text-anchor="middle" x="518" y="-1687.2" font-family="Courier,monospace" font-size="11.00">JGithubPackageOrgsTeams</text>
</a>
</g>
<!-- \\JGithubPackageOrgsTeams&#45;&gt;\\JGithubPackage -->
<g id="edge29" class="edge"><title>\\JGithubPackageOrgsTeams&#45;&gt;\\JGithubPackage</title>
<path fill="none" stroke="black" d="M431.754,-1688C412.213,-1683.85 392.846,-1676.27 378,-1663 264.861,-1561.87 251.564,-1361.38 250.69,-1286.81"/>
<polygon fill="none" stroke="black" points="254.188,-1286.34 250.642,-1276.36 247.188,-1286.37 254.188,-1286.34"/>
</g>
<!-- \\JGithubPackageOrgsMembers -->
<g id="node18" class="node"><title>\\JGithubPackageOrgsMembers</title>
<a xlink:href="package.orgs.members.html" xlink:title="JGithubPackageOrgsMembers" target="_parent">
<polygon fill="none" stroke="black" points="610.5,-1654 425.5,-1654 425.5,-1618 610.5,-1618 610.5,-1654"/>
<text text-anchor="middle" x="518" y="-1633.2" font-family="Courier,monospace" font-size="11.00">JGithubPackageOrgsMembers</text>
</a>
</g>
<!-- \\JGithubPackageOrgsMembers&#45;&gt;\\JGithubPackage -->
<g id="edge31" class="edge"><title>\\JGithubPackageOrgsMembers&#45;&gt;\\JGithubPackage</title>
<path fill="none" stroke="black" d="M425.283,-1631.95C408.094,-1627.58 391.355,-1620.43 378,-1609 278.417,-1523.8 256.914,-1354.15 252.275,-1286.66"/>
<polygon fill="none" stroke="black" points="255.75,-1286.14 251.646,-1276.37 248.763,-1286.57 255.75,-1286.14"/>
</g>
<!-- \\JGithubPackageActivity -->
<g id="node19" class="node"><title>\\JGithubPackageActivity</title>
<a xlink:href="package.activity.html" xlink:title="JGithubPackageActivity" target="_parent">
<polygon fill="none" stroke="black" points="600.5,-1600 435.5,-1600 435.5,-1564 600.5,-1564 600.5,-1600"/>
<text text-anchor="middle" x="518" y="-1579.2" font-family="Courier,monospace" font-size="11.00">JGithubPackageActivity</text>
</a>
</g>
<!-- \\JGithubPackageActivity&#45;&gt;\\JGithubPackage -->
<g id="edge33" class="edge"><title>\\JGithubPackageActivity&#45;&gt;\\JGithubPackage</title>
<path fill="none" stroke="black" d="M435.195,-1579.45C414.798,-1575.43 394.162,-1568.05 378,-1555 291.745,-1485.35 262.972,-1346.15 254.34,-1286.36"/>
<polygon fill="none" stroke="black" points="257.768,-1285.59 252.953,-1276.16 250.831,-1286.54 257.768,-1285.59"/>
</g>
<!-- \\JGithubPackagePulls -->
<g id="node20" class="node"><title>\\JGithubPackagePulls</title>
<a xlink:href="package.pulls.html" xlink:title="JGithubPackagePulls" target="_parent">
<polygon fill="none" stroke="black" points="590.5,-1546 445.5,-1546 445.5,-1510 590.5,-1510 590.5,-1546"/>
<text text-anchor="middle" x="518" y="-1525.2" font-family="Courier,monospace" font-size="11.00">JGithubPackagePulls</text>
</a>
</g>
<!-- \\JGithubPackagePulls&#45;&gt;\\JGithubPackage -->
<g id="edge35" class="edge"><title>\\JGithubPackagePulls&#45;&gt;\\JGithubPackage</title>
<path fill="none" stroke="black" d="M445.229,-1526.24C421.959,-1522.65 397.217,-1515.32 378,-1501 304.802,-1446.44 270,-1337.25 257.147,-1285.9"/>
<polygon fill="none" stroke="black" points="260.542,-1285.05 254.797,-1276.15 253.737,-1286.69 260.542,-1285.05"/>
</g>
<!-- \\JGithubPackageActivityStarring -->
<g id="node21" class="node"><title>\\JGithubPackageActivityStarring</title>
<a xlink:href="package.activity.starring.html" xlink:title="JGithubPackageActivityStarring" target="_parent">
<polygon fill="none" stroke="black" points="627.5,-1492 408.5,-1492 408.5,-1456 627.5,-1456 627.5,-1492"/>
<text text-anchor="middle" x="518" y="-1471.2" font-family="Courier,monospace" font-size="11.00">JGithubPackageActivityStarring</text>
</a>
</g>
<!-- \\JGithubPackageActivityStarring&#45;&gt;\\JGithubPackage -->
<g id="edge37" class="edge"><title>\\JGithubPackageActivityStarring&#45;&gt;\\JGithubPackage</title>
<path fill="none" stroke="black" d="M408.165,-1461.67C397.493,-1457.91 387.22,-1453.11 378,-1447 317.605,-1406.96 278.586,-1327.36 261.296,-1285.38"/>
<polygon fill="none" stroke="black" points="264.526,-1284.03 257.557,-1276.05 258.028,-1286.63 264.526,-1284.03"/>
</g>
<!-- \\JGithubPackageActivityWatching -->
<g id="node22" class="node"><title>\\JGithubPackageActivityWatching</title>
<a xlink:href="package.activity.watching.html" xlink:title="JGithubPackageActivityWatching" target="_parent">
<polygon fill="none" stroke="black" points="627.5,-1438 408.5,-1438 408.5,-1402 627.5,-1402 627.5,-1438"/>
<text text-anchor="middle" x="518" y="-1417.2" font-family="Courier,monospace" font-size="11.00">JGithubPackageActivityWatching</text>
</a>
</g>
<!-- \\JGithubPackageActivityWatching&#45;&gt;\\JGithubPackage -->
<g id="edge39" class="edge"><title>\\JGithubPackageActivityWatching&#45;&gt;\\JGithubPackage</title>
<path fill="none" stroke="black" d="M408.395,-1405.86C397.794,-1402.45 387.472,-1398.22 378,-1393 330.296,-1366.7 290.147,-1316.15 268.422,-1284.92"/>
<polygon fill="none" stroke="black" points="271.059,-1282.57 262.537,-1276.28 265.273,-1286.51 271.059,-1282.57"/>
</g>
<!-- \\JGithubPackageActivityNotifications -->
<g id="node23" class="node"><title>\\JGithubPackageActivityNotifications</title>
<a xlink:href="package.activity.notifications.html" xlink:title="JGithubPackageActivityNotifications" target="_parent">
<polygon fill="none" stroke="black" points="644.5,-1384 391.5,-1384 391.5,-1348 644.5,-1348 644.5,-1384"/>
<text text-anchor="middle" x="518" y="-1363.2" font-family="Courier,monospace" font-size="11.00">JGithubPackageActivityNotifications</text>
</a>
</g>
<!-- \\JGithubPackageActivityNotifications&#45;&gt;\\JGithubPackage -->
<g id="edge41" class="edge"><title>\\JGithubPackageActivityNotifications&#45;&gt;\\JGithubPackage</title>
<path fill="none" stroke="black" d="M404.418,-1347.93C395.357,-1345.33 386.448,-1342.37 378,-1339 342.586,-1324.86 306.314,-1300.55 281.65,-1282.24"/>
<polygon fill="none" stroke="black" points="283.522,-1279.27 273.43,-1276.05 279.306,-1284.86 283.522,-1279.27"/>
</g>
<!-- \\JGithubPackageActivityEvents -->
<g id="node24" class="node"><title>\\JGithubPackageActivityEvents</title>
<a xlink:href="package.activity.events.html" xlink:title="JGithubPackageActivityEvents" target="_parent">
<polygon fill="none" stroke="black" points="621,-1330 415,-1330 415,-1294 621,-1294 621,-1330"/>
<text text-anchor="middle" x="518" y="-1309.2" font-family="Courier,monospace" font-size="11.00">JGithubPackageActivityEvents</text>
</a>
</g>
<!-- \\JGithubPackageActivityEvents&#45;&gt;\\JGithubPackage -->
<g id="edge43" class="edge"><title>\\JGithubPackageActivityEvents&#45;&gt;\\JGithubPackage</title>
<path fill="none" stroke="black" d="M423.119,-1294C408.023,-1291.04 392.574,-1287.96 378,-1285 357.875,-1280.91 335.989,-1276.31 316.145,-1272.08"/>
<polygon fill="none" stroke="black" points="316.79,-1268.64 306.28,-1269.97 315.329,-1275.48 316.79,-1268.64"/>
</g>
<!-- \\JGithubPackagePullsComments -->
<g id="node25" class="node"><title>\\JGithubPackagePullsComments</title>
<a xlink:href="package.pulls.comments.html" xlink:title="JGithubPackagePullsComments" target="_parent">
<polygon fill="none" stroke="black" points="617.5,-1276 418.5,-1276 418.5,-1240 617.5,-1240 617.5,-1276"/>
<text text-anchor="middle" x="518" y="-1255.2" font-family="Courier,monospace" font-size="11.00">JGithubPackagePullsComments</text>
</a>
</g>
<!-- \\JGithubPackagePullsComments&#45;&gt;\\JGithubPackage -->
<g id="edge45" class="edge"><title>\\JGithubPackagePullsComments&#45;&gt;\\JGithubPackage</title>
<path fill="none" stroke="black" d="M418.329,-1258C384.323,-1258 347.103,-1258 316.418,-1258"/>
<polygon fill="none" stroke="black" points="316.277,-1254.5 306.277,-1258 316.277,-1261.5 316.277,-1254.5"/>
</g>
<!-- \\JGithubPackageSearch -->
<g id="node26" class="node"><title>\\JGithubPackageSearch</title>
<a xlink:href="package.search.html" xlink:title="JGithubPackageSearch" target="_parent">
<polygon fill="none" stroke="black" points="594,-1222 442,-1222 442,-1186 594,-1186 594,-1222"/>
<text text-anchor="middle" x="518" y="-1201.2" font-family="Courier,monospace" font-size="11.00">JGithubPackageSearch</text>
</a>
</g>
<!-- \\JGithubPackageSearch&#45;&gt;\\JGithubPackage -->
<g id="edge47" class="edge"><title>\\JGithubPackageSearch&#45;&gt;\\JGithubPackage</title>
<path fill="none" stroke="black" d="M441.928,-1218.33C421.202,-1222.36 398.717,-1226.79 378,-1231 357.875,-1235.09 335.989,-1239.69 316.145,-1243.92"/>
<polygon fill="none" stroke="black" points="315.329,-1240.52 306.28,-1246.03 316.79,-1247.36 315.329,-1240.52"/>
</g>
<!-- \\JGithubPackageAuthorization -->
<g id="node27" class="node"><title>\\JGithubPackageAuthorization</title>
<a xlink:href="package.authorization.html" xlink:title="JGithubPackageAuthorization" target="_parent">
<polygon fill="none" stroke="black" points="617.5,-1168 418.5,-1168 418.5,-1132 617.5,-1132 617.5,-1168"/>
<text text-anchor="middle" x="518" y="-1147.2" font-family="Courier,monospace" font-size="11.00">JGithubPackageAuthorization</text>
</a>
</g>
<!-- \\JGithubPackageAuthorization&#45;&gt;\\JGithubPackage -->
<g id="edge49" class="edge"><title>\\JGithubPackageAuthorization&#45;&gt;\\JGithubPackage</title>
<path fill="none" stroke="black" d="M418.227,-1162.88C404.364,-1166.48 390.571,-1171.09 378,-1177 343.334,-1193.29 341.676,-1211.95 307.673,-1234.44"/>
<polygon fill="none" stroke="black" points="305.489,-1231.68 298.838,-1239.93 309.18,-1237.63 305.489,-1231.68"/>
</g>
<!-- \\JGithubPackageRepositoriesCollaborators -->
<g id="node28" class="node"><title>\\JGithubPackageRepositoriesCollaborators</title>
<a xlink:href="package.repositories.collaborators.html" xlink:title="JGithubPackageRepositoriesCollaborators" target="_parent">
<polygon fill="none" stroke="black" points="658,-1114 378,-1114 378,-1078 658,-1078 658,-1114"/>
<text text-anchor="middle" x="518" y="-1093.2" font-family="Courier,monospace" font-size="11.00">JGithubPackageRepositoriesCollaborators</text>
</a>
</g>
<!-- \\JGithubPackageRepositoriesCollaborators&#45;&gt;\\JGithubPackage -->
<g id="edge51" class="edge"><title>\\JGithubPackageRepositoriesCollaborators&#45;&gt;\\JGithubPackage</title>
<path fill="none" stroke="black" d="M393.453,-1114.15C388.062,-1116.75 382.877,-1119.68 378,-1123 331.465,-1154.68 349.544,-1193.49 308.49,-1233.03"/>
<polygon fill="none" stroke="black" points="305.904,-1230.65 300.747,-1239.9 310.55,-1235.88 305.904,-1230.65"/>
</g>
<!-- \\JGithubPackageRepositoriesHooks -->
<g id="node29" class="node"><title>\\JGithubPackageRepositoriesHooks</title>
<a xlink:href="package.repositories.hooks.html" xlink:title="JGithubPackageRepositoriesHooks" target="_parent">
<polygon fill="none" stroke="black" points="631,-1060 405,-1060 405,-1024 631,-1024 631,-1060"/>
<text text-anchor="middle" x="518" y="-1039.2" font-family="Courier,monospace" font-size="11.00">JGithubPackageRepositoriesHooks</text>
</a>
</g>
<!-- \\JGithubPackageRepositoriesHooks&#45;&gt;\\JGithubPackage -->
<g id="edge53" class="edge"><title>\\JGithubPackageRepositoriesHooks&#45;&gt;\\JGithubPackage</title>
<path fill="none" stroke="black" d="M404.857,-1053.49C395.188,-1057.45 386.043,-1062.53 378,-1069 317.622,-1117.61 360.086,-1174.71 308.883,-1232.27"/>
<polygon fill="none" stroke="black" points="306.189,-1230.02 301.784,-1239.66 311.236,-1234.87 306.189,-1230.02"/>
</g>
<!-- \\JGithubPackageRepositoriesMerging -->
<g id="node30" class="node"><title>\\JGithubPackageRepositoriesMerging</title>
<a xlink:href="package.repositories.merging.html" xlink:title="JGithubPackageRepositoriesMerging" target="_parent">
<polygon fill="none" stroke="black" points="637.5,-1006 398.5,-1006 398.5,-970 637.5,-970 637.5,-1006"/>
<text text-anchor="middle" x="518" y="-985.2" font-family="Courier,monospace" font-size="11.00">JGithubPackageRepositoriesMerging</text>
</a>
</g>
<!-- \\JGithubPackageRepositoriesMerging&#45;&gt;\\JGithubPackage -->
<g id="edge55" class="edge"><title>\\JGithubPackageRepositoriesMerging&#45;&gt;\\JGithubPackage</title>
<path fill="none" stroke="black" d="M398.17,-1001.54C390.899,-1005.19 384.078,-1009.63 378,-1015 303.169,-1081.14 371.735,-1155.48 308.892,-1231.93"/>
<polygon fill="none" stroke="black" points="305.93,-1230 301.941,-1239.81 311.18,-1234.63 305.93,-1230"/>
</g>
<!-- \\JGithubPackageRepositoriesComments -->
<g id="node31" class="node"><title>\\JGithubPackageRepositoriesComments</title>
<a xlink:href="package.repositories.comments.html" xlink:title="JGithubPackageRepositoriesComments" target="_parent">
<polygon fill="none" stroke="black" points="641,-952 395,-952 395,-916 641,-916 641,-952"/>
<text text-anchor="middle" x="518" y="-931.2" font-family="Courier,monospace" font-size="11.00">JGithubPackageRepositoriesComments</text>
</a>
</g>
<!-- \\JGithubPackageRepositoriesComments&#45;&gt;\\JGithubPackage -->
<g id="edge57" class="edge"><title>\\JGithubPackageRepositoriesComments&#45;&gt;\\JGithubPackage</title>
<path fill="none" stroke="black" d="M394.893,-948.716C388.806,-952.147 383.111,-956.207 378,-961 288.271,-1045.14 384.274,-1136.34 308.58,-1232.12"/>
<polygon fill="none" stroke="black" points="305.79,-1230 302.046,-1239.91 311.154,-1234.5 305.79,-1230"/>
</g>
<!-- \\JGithubPackageRepositoriesContents -->
<g id="node32" class="node"><title>\\JGithubPackageRepositoriesContents</title>
<a xlink:href="package.repositories.contents.html" xlink:title="JGithubPackageRepositoriesContents" target="_parent">
<polygon fill="none" stroke="black" points="641,-898 395,-898 395,-862 641,-862 641,-898"/>
<text text-anchor="middle" x="518" y="-877.2" font-family="Courier,monospace" font-size="11.00">JGithubPackageRepositoriesContents</text>
</a>
</g>
<!-- \\JGithubPackageRepositoriesContents&#45;&gt;\\JGithubPackage -->
<g id="edge59" class="edge"><title>\\JGithubPackageRepositoriesContents&#45;&gt;\\JGithubPackage</title>
<path fill="none" stroke="black" d="M394.977,-894.289C388.828,-897.82 383.1,-902.019 378,-907 273.322,-1009.24 396.954,-1116.85 308.554,-1232.02"/>
<polygon fill="none" stroke="black" points="305.69,-1230 302.12,-1239.97 311.131,-1234.4 305.69,-1230"/>
</g>
<!-- \\JGithubPackageRepositoriesDownloads -->
<g id="node33" class="node"><title>\\JGithubPackageRepositoriesDownloads</title>
<a xlink:href="package.repositories.downloads.html" xlink:title="JGithubPackageRepositoriesDownloads" target="_parent">
<polygon fill="none" stroke="black" points="644.5,-844 391.5,-844 391.5,-808 644.5,-808 644.5,-844"/>
<text text-anchor="middle" x="518" y="-823.2" font-family="Courier,monospace" font-size="11.00">JGithubPackageRepositoriesDownloads</text>
</a>
</g>
<!-- \\JGithubPackageRepositoriesDownloads&#45;&gt;\\JGithubPackage -->
<g id="edge61" class="edge"><title>\\JGithubPackageRepositoriesDownloads&#45;&gt;\\JGithubPackage</title>
<path fill="none" stroke="black" d="M391.377,-842.221C386.569,-845.33 382.073,-848.903 378,-853 258.281,-973.443 409.845,-1097.27 308.961,-1231.56"/>
<polygon fill="none" stroke="black" points="306.067,-1229.58 302.627,-1239.6 311.565,-1233.91 306.067,-1229.58"/>
</g>
<!-- \\JGithubPackageRepositoriesForks -->
<g id="node34" class="node"><title>\\JGithubPackageRepositoriesForks</title>
<a xlink:href="package.repositories.forks.html" xlink:title="JGithubPackageRepositoriesForks" target="_parent">
<polygon fill="none" stroke="black" points="631,-790 405,-790 405,-754 631,-754 631,-790"/>
<text text-anchor="middle" x="518" y="-769.2" font-family="Courier,monospace" font-size="11.00">JGithubPackageRepositoriesForks</text>
</a>
</g>
<!-- \\JGithubPackageRepositoriesForks&#45;&gt;\\JGithubPackage -->
<g id="edge63" class="edge"><title>\\JGithubPackageRepositoriesForks&#45;&gt;\\JGithubPackage</title>
<path fill="none" stroke="black" d="M404.752,-780.772C394.798,-785.221 385.624,-791.155 378,-799 243.226,-937.68 422.755,-1077.54 309.053,-1231.36"/>
<polygon fill="none" stroke="black" points="306.008,-1229.58 302.665,-1239.63 311.548,-1233.86 306.008,-1229.58"/>
</g>
<!-- \\JGithubPackageRepositoriesKeys -->
<g id="node35" class="node"><title>\\JGithubPackageRepositoriesKeys</title>
<a xlink:href="package.repositories.keys.html" xlink:title="JGithubPackageRepositoriesKeys" target="_parent">
<polygon fill="none" stroke="black" points="627.5,-736 408.5,-736 408.5,-700 627.5,-700 627.5,-736"/>
<text text-anchor="middle" x="518" y="-715.2" font-family="Courier,monospace" font-size="11.00">JGithubPackageRepositoriesKeys</text>
</a>
</g>
<!-- \\JGithubPackageRepositoriesKeys&#45;&gt;\\JGithubPackage -->
<g id="edge65" class="edge"><title>\\JGithubPackageRepositoriesKeys&#45;&gt;\\JGithubPackage</title>
<path fill="none" stroke="black" d="M408.325,-725.043C396.963,-729.663 386.488,-736.11 378,-745 227.997,-902.107 436.125,-1058.05 308.806,-1231.64"/>
<polygon fill="none" stroke="black" points="305.974,-1229.58 302.695,-1239.65 311.541,-1233.82 305.974,-1229.58"/>
</g>
<!-- \\JGithubPackageRepositoriesStatuses -->
<g id="node36" class="node"><title>\\JGithubPackageRepositoriesStatuses</title>
<a xlink:href="package.repositories.statuses.html" xlink:title="JGithubPackageRepositoriesStatuses" target="_parent">
<polygon fill="none" stroke="black" points="641,-682 395,-682 395,-646 641,-646 641,-682"/>
<text text-anchor="middle" x="518" y="-661.2" font-family="Courier,monospace" font-size="11.00">JGithubPackageRepositoriesStatuses</text>
</a>
</g>
<!-- \\JGithubPackageRepositoriesStatuses&#45;&gt;\\JGithubPackage -->
<g id="edge67" class="edge"><title>\\JGithubPackageRepositoriesStatuses&#45;&gt;\\JGithubPackage</title>
<path fill="none" stroke="black" d="M394.785,-677.606C388.641,-681.297 382.97,-685.719 378,-691 212.829,-866.48 449.326,-1038.34 308.783,-1231.62"/>
<polygon fill="none" stroke="black" points="305.941,-1229.58 302.719,-1239.67 311.532,-1233.79 305.941,-1229.58"/>
</g>
<!-- \\JGithubPackageRepositoriesCommits -->
<g id="node37" class="node"><title>\\JGithubPackageRepositoriesCommits</title>
<a xlink:href="package.repositories.commits.html" xlink:title="JGithubPackageRepositoriesCommits" target="_parent">
<polygon fill="none" stroke="black" points="637.5,-628 398.5,-628 398.5,-592 637.5,-592 637.5,-628"/>
<text text-anchor="middle" x="518" y="-607.2" font-family="Courier,monospace" font-size="11.00">JGithubPackageRepositoriesCommits</text>
</a>
</g>
<!-- \\JGithubPackageRepositoriesCommits&#45;&gt;\\JGithubPackage -->
<g id="edge69" class="edge"><title>\\JGithubPackageRepositoriesCommits&#45;&gt;\\JGithubPackage</title>
<path fill="none" stroke="black" d="M398.186,-621.539C390.716,-625.619 383.86,-630.7 378,-637 197.686,-830.832 462.448,-1018.52 308.873,-1231.46"/>
<polygon fill="none" stroke="black" points="305.911,-1229.58 302.74,-1239.69 311.523,-1233.76 305.911,-1229.58"/>
</g>
<!-- \\JGithubPackageData -->
<g id="node38" class="node"><title>\\JGithubPackageData</title>
<a xlink:href="package.data.html" xlink:title="JGithubPackageData" target="_parent">
<polygon fill="none" stroke="black" points="587,-574 449,-574 449,-538 587,-538 587,-574"/>
<text text-anchor="middle" x="518" y="-553.2" font-family="Courier,monospace" font-size="11.00">JGithubPackageData</text>
</a>
</g>
<!-- \\JGithubPackageData&#45;&gt;\\JGithubPackage -->
<g id="edge71" class="edge"><title>\\JGithubPackageData&#45;&gt;\\JGithubPackage</title>
<path fill="none" stroke="black" d="M448.661,-553.131C423.028,-555.762 395.821,-563.653 378,-583 182.497,-795.238 475.693,-998.743 308.886,-1231.41"/>
<polygon fill="none" stroke="black" points="305.888,-1229.58 302.756,-1239.7 311.516,-1233.74 305.888,-1229.58"/>
</g>
<!-- \\JGithubPackageUsers -->
<g id="node39" class="node"><title>\\JGithubPackageUsers</title>
<a xlink:href="package.users.html" xlink:title="JGithubPackageUsers" target="_parent">
<polygon fill="none" stroke="black" points="590.5,-520 445.5,-520 445.5,-484 590.5,-484 590.5,-520"/>
<text text-anchor="middle" x="518" y="-499.2" font-family="Courier,monospace" font-size="11.00">JGithubPackageUsers</text>
</a>
</g>
<!-- \\JGithubPackageUsers&#45;&gt;\\JGithubPackage -->
<g id="edge73" class="edge"><title>\\JGithubPackageUsers&#45;&gt;\\JGithubPackage</title>
<path fill="none" stroke="black" d="M445.336,-499.415C420.663,-502.361 394.994,-510.396 378,-529 273.673,-643.208 395.841,-1090.99 308.534,-1231.31"/>
<polygon fill="none" stroke="black" points="305.541,-1229.49 302.771,-1239.71 311.313,-1233.44 305.541,-1229.49"/>
</g>
<!-- \\JGithubPackageGists -->
<g id="node40" class="node"><title>\\JGithubPackageGists</title>
<a xlink:href="package.gists.html" xlink:title="JGithubPackageGists" target="_parent">
<polygon fill="none" stroke="black" points="590.5,-466 445.5,-466 445.5,-430 590.5,-430 590.5,-466"/>
<text text-anchor="middle" x="518" y="-445.2" font-family="Courier,monospace" font-size="11.00">JGithubPackageGists</text>
</a>
</g>
<!-- \\JGithubPackageGists&#45;&gt;\\JGithubPackage -->
<g id="edge75" class="edge"><title>\\JGithubPackageGists&#45;&gt;\\JGithubPackage</title>
<path fill="none" stroke="black" d="M445.264,-445.349C420.584,-448.289 394.928,-456.335 378,-475 266.113,-598.368 402.236,-1080.63 308.653,-1231.13"/>
<polygon fill="none" stroke="black" points="305.534,-1229.49 302.783,-1239.72 311.314,-1233.44 305.534,-1229.49"/>
</g>
<!-- \\JGithubPackageRepositories -->
<g id="node41" class="node"><title>\\JGithubPackageRepositories</title>
<a xlink:href="package.repositories.html" xlink:title="JGithubPackageRepositories" target="_parent">
<polygon fill="none" stroke="black" points="614,-412 422,-412 422,-376 614,-376 614,-412"/>
<text text-anchor="middle" x="518" y="-391.2" font-family="Courier,monospace" font-size="11.00">JGithubPackageRepositories</text>
</a>
</g>
<!-- \\JGithubPackageRepositories&#45;&gt;\\JGithubPackage -->
<g id="edge77" class="edge"><title>\\JGithubPackageRepositories&#45;&gt;\\JGithubPackage</title>
<path fill="none" stroke="black" d="M421.74,-395.804C405.134,-400.407 389.521,-408.218 378,-421 258.533,-553.55 408.69,-1070.4 308.735,-1231.01"/>
<polygon fill="none" stroke="black" points="305.531,-1229.49 302.794,-1239.73 311.316,-1233.43 305.531,-1229.49"/>
</g>
<!-- \\JGithubPackageIssues -->
<g id="node42" class="node"><title>\\JGithubPackageIssues</title>
<a xlink:href="package.issues.html" xlink:title="JGithubPackageIssues" target="_parent">
<polygon fill="none" stroke="black" points="594,-358 442,-358 442,-322 594,-322 594,-358"/>
<text text-anchor="middle" x="518" y="-337.2" font-family="Courier,monospace" font-size="11.00">JGithubPackageIssues</text>
</a>
</g>
<!-- \\JGithubPackageIssues&#45;&gt;\\JGithubPackage -->
<g id="edge79" class="edge"><title>\\JGithubPackageIssues&#45;&gt;\\JGithubPackage</title>
<path fill="none" stroke="black" d="M441.89,-337.659C418.219,-340.899 394.08,-349.061 378,-367 250.81,-508.895 415.527,-1061.4 308.461,-1231.45"/>
<polygon fill="none" stroke="black" points="305.554,-1229.5 302.804,-1239.74 311.334,-1233.45 305.554,-1229.5"/>
</g>
<!-- \\JGithubPackageGitignore -->
<g id="node43" class="node"><title>\\JGithubPackageGitignore</title>
<a xlink:href="package.gitignore.html" xlink:title="JGithubPackageGitignore" target="_parent">
<polygon fill="none" stroke="black" points="604,-304 432,-304 432,-268 604,-268 604,-304"/>
<text text-anchor="middle" x="518" y="-283.2" font-family="Courier,monospace" font-size="11.00">JGithubPackageGitignore</text>
</a>
</g>
<!-- \\JGithubPackageGitignore&#45;&gt;\\JGithubPackage -->
<g id="edge81" class="edge"><title>\\JGithubPackageGitignore&#45;&gt;\\JGithubPackage</title>
<path fill="none" stroke="black" d="M431.691,-285.318C411.437,-289.386 391.746,-297.59 378,-313 243.255,-464.054 421.946,-1050.92 308.618,-1231.21"/>
<polygon fill="none" stroke="black" points="305.547,-1229.51 302.812,-1239.74 311.333,-1233.45 305.547,-1229.51"/>
</g>
<!-- \\JGithubPackageIssuesAssignees -->
<g id="node44" class="node"><title>\\JGithubPackageIssuesAssignees</title>
<a xlink:href="package.issues.assignees.html" xlink:title="JGithubPackageIssuesAssignees" target="_parent">
<polygon fill="none" stroke="black" points="624,-250 412,-250 412,-214 624,-214 624,-250"/>
<text text-anchor="middle" x="518" y="-229.2" font-family="Courier,monospace" font-size="11.00">JGithubPackageIssuesAssignees</text>
</a>
</g>
<!-- \\JGithubPackageIssuesAssignees&#45;&gt;\\JGithubPackage -->
<g id="edge83" class="edge"><title>\\JGithubPackageIssuesAssignees&#45;&gt;\\JGithubPackage</title>
<path fill="none" stroke="black" d="M411.783,-236.843C398.936,-241.626 387.142,-248.707 378,-259 235.62,-419.304 428.585,-1041.12 308.577,-1231.29"/>
<polygon fill="none" stroke="black" points="305.553,-1229.51 302.819,-1239.75 311.339,-1233.45 305.553,-1229.51"/>
</g>
<!-- \\JGithubPackageIssuesComments -->
<g id="node45" class="node"><title>\\JGithubPackageIssuesComments</title>
<a xlink:href="package.issues.comments.html" xlink:title="JGithubPackageIssuesComments" target="_parent">
<polygon fill="none" stroke="black" points="621,-196 415,-196 415,-160 621,-160 621,-196"/>
<text text-anchor="middle" x="518" y="-175.2" font-family="Courier,monospace" font-size="11.00">JGithubPackageIssuesComments</text>
</a>
</g>
<!-- \\JGithubPackageIssuesComments&#45;&gt;\\JGithubPackage -->
<g id="edge85" class="edge"><title>\\JGithubPackageIssuesComments&#45;&gt;\\JGithubPackage</title>
<path fill="none" stroke="black" d="M414.863,-181.701C400.816,-186.479 387.855,-193.861 378,-205 227.968,-374.573 435.28,-1031.45 308.498,-1231.42"/>
<polygon fill="none" stroke="black" points="305.561,-1229.52 302.826,-1239.75 311.347,-1233.46 305.561,-1229.52"/>
</g>
<!-- \\JGithubPackageIssuesLabels -->
<g id="node46" class="node"><title>\\JGithubPackageIssuesLabels</title>
<a xlink:href="package.issues.labels.html" xlink:title="JGithubPackageIssuesLabels" target="_parent">
<polygon fill="none" stroke="black" points="614,-142 422,-142 422,-106 614,-106 614,-142"/>
<text text-anchor="middle" x="518" y="-121.2" font-family="Courier,monospace" font-size="11.00">JGithubPackageIssuesLabels</text>
</a>
</g>
<!-- \\JGithubPackageIssuesLabels&#45;&gt;\\JGithubPackage -->
<g id="edge87" class="edge"><title>\\JGithubPackageIssuesLabels&#45;&gt;\\JGithubPackage</title>
<path fill="none" stroke="black" d="M421.873,-125.508C405.152,-130.113 389.462,-138 378,-151 220.378,-329.774 441.813,-1021.23 308.579,-1231.3"/>
<polygon fill="none" stroke="black" points="305.559,-1229.52 302.832,-1239.76 311.348,-1233.45 305.559,-1229.52"/>
</g>
<!-- \\JGithubPackageIssuesMilestones -->
<g id="node47" class="node"><title>\\JGithubPackageIssuesMilestones</title>
<a xlink:href="package.issues.milestones.html" xlink:title="JGithubPackageIssuesMilestones" target="_parent">
<polygon fill="none" stroke="black" points="627.5,-2464 408.5,-2464 408.5,-2428 627.5,-2428 627.5,-2464"/>
<text text-anchor="middle" x="518" y="-2443.2" font-family="Courier,monospace" font-size="11.00">JGithubPackageIssuesMilestones</text>
</a>
</g>
<!-- \\JGithubPackageIssuesMilestones&#45;&gt;\\JGithubPackage -->
<g id="edge89" class="edge"><title>\\JGithubPackageIssuesMilestones&#45;&gt;\\JGithubPackage</title>
<path fill="none" stroke="black" d="M408.345,-2439.4C396.906,-2434.72 386.407,-2428.13 378,-2419 298.642,-2332.78 259.046,-1455.54 252.112,-1286.2"/>
<polygon fill="none" stroke="black" points="255.605,-1285.94 251.703,-1276.09 248.61,-1286.22 255.605,-1285.94"/>
</g>
<!-- \\JGithubPackageIssuesEvents -->
<g id="node48" class="node"><title>\\JGithubPackageIssuesEvents</title>
<a xlink:href="package.issues.events.html" xlink:title="JGithubPackageIssuesEvents" target="_parent">
<polygon fill="none" stroke="black" points="614,-2356 422,-2356 422,-2320 614,-2320 614,-2356"/>
<text text-anchor="middle" x="518" y="-2335.2" font-family="Courier,monospace" font-size="11.00">JGithubPackageIssuesEvents</text>
</a>
</g>
<!-- \\JGithubPackageIssuesEvents&#45;&gt;\\JGithubPackage -->
<g id="edge91" class="edge"><title>\\JGithubPackageIssuesEvents&#45;&gt;\\JGithubPackage</title>
<path fill="none" stroke="black" d="M421.704,-2335.8C405.204,-2331.21 389.639,-2323.51 378,-2311 305.951,-2233.58 260.939,-1447.09 252.461,-1286.53"/>
<polygon fill="none" stroke="black" points="255.931,-1285.87 251.914,-1276.07 248.941,-1286.24 255.931,-1285.87"/>
</g>
</g>
</svg>
