<?xml version="1.0" encoding="UTF-8" standalone="no"?>
<!DOCTYPE svg PUBLIC "-//W3C//DTD SVG 1.1//EN"
 "http://www.w3.org/Graphics/SVG/1.1/DTD/svg11.dtd">
<!-- Generated by graphviz version 2.28.0 (20120716.1447)
 -->
<!-- Title: G Pages: 1 -->
<svg width="596pt" height="872pt"
 viewBox="0.00 0.00 596.00 872.00" xmlns="http://www.w3.org/2000/svg" xmlns:xlink="http://www.w3.org/1999/xlink">
<g id="graph1" class="graph" transform="scale(1 1) rotate(0) translate(4 868)">
<title>G</title>
<polygon fill="white" stroke="white" points="-4,5 -4,-868 593,-868 593,5 -4,5"/>
<g id="graph2" class="cluster"><title>cluster_Joomla</title>
<polyline fill="none" stroke="gray" points="20,-44 568,-44 "/>
<path fill="none" stroke="gray" d="M568,-44C574,-44 580,-50 580,-56"/>
<polyline fill="none" stroke="gray" points="580,-56 580,-844 "/>
<path fill="none" stroke="gray" d="M580,-844C580,-850 574,-856 568,-856"/>
<polyline fill="none" stroke="gray" points="568,-856 20,-856 "/>
<path fill="none" stroke="gray" d="M20,-856C14,-856 8,-850 8,-844"/>
<polyline fill="none" stroke="gray" points="8,-844 8,-56 "/>
<path fill="none" stroke="gray" d="M8,-56C8,-50 14,-44 20,-44"/>
<text text-anchor="middle" x="294" y="-843.2" font-family="Times,serif" font-size="11.00" fill="gray">Joomla</text>
</g>
<g id="graph3" class="cluster"><title>cluster_Joomla\Github</title>
<polyline fill="none" stroke="gray" points="28,-52 560,-52 "/>
<path fill="none" stroke="gray" d="M560,-52C566,-52 572,-58 572,-64"/>
<polyline fill="none" stroke="gray" points="572,-64 572,-816 "/>
<path fill="none" stroke="gray" d="M572,-816C572,-822 566,-828 560,-828"/>
<polyline fill="none" stroke="gray" points="560,-828 28,-828 "/>
<path fill="none" stroke="gray" d="M28,-828C22,-828 16,-822 16,-816"/>
<polyline fill="none" stroke="gray" points="16,-816 16,-64 "/>
<path fill="none" stroke="gray" d="M16,-64C16,-58 22,-52 28,-52"/>
<text text-anchor="middle" x="294" y="-815.2" font-family="Times,serif" font-size="11.00" fill="gray">Github</text>
</g>
<g id="graph4" class="cluster"><title>cluster_Joomla\Github\Package</title>
<polyline fill="none" stroke="gray" points="440,-160 552,-160 "/>
<path fill="none" stroke="gray" d="M552,-160C558,-160 564,-166 564,-172"/>
<polyline fill="none" stroke="gray" points="564,-172 564,-788 "/>
<path fill="none" stroke="gray" d="M564,-788C564,-794 558,-800 552,-800"/>
<polyline fill="none" stroke="gray" points="552,-800 440,-800 "/>
<path fill="none" stroke="gray" d="M440,-800C434,-800 428,-794 428,-788"/>
<polyline fill="none" stroke="gray" points="428,-788 428,-172 "/>
<path fill="none" stroke="gray" d="M428,-172C428,-166 434,-160 440,-160"/>
<text text-anchor="middle" x="496" y="-787.2" font-family="Times,serif" font-size="11.00" fill="gray">Package</text>
</g>
<g id="graph5" class="cluster"><title>cluster_Joomla\Github\Package\Repositories</title>
<polyline fill="none" stroke="gray" points="448,-214 544,-214 "/>
<path fill="none" stroke="gray" d="M544,-214C550,-214 556,-220 556,-226"/>
<polyline fill="none" stroke="gray" points="556,-226 556,-760 "/>
<path fill="none" stroke="gray" d="M556,-760C556,-766 550,-772 544,-772"/>
<polyline fill="none" stroke="gray" points="544,-772 448,-772 "/>
<path fill="none" stroke="gray" d="M448,-772C442,-772 436,-766 436,-760"/>
<polyline fill="none" stroke="gray" points="436,-760 436,-226 "/>
<path fill="none" stroke="gray" d="M436,-226C436,-220 442,-214 448,-214"/>
<text text-anchor="middle" x="496" y="-759.2" font-family="Times,serif" font-size="11.00" fill="gray">Repositories</text>
</g>
<!-- \\Joomla\\Github\\Package\\Repositories\\Statuses -->
<g id="node5" class="node"><title>\\Joomla\\Github\\Package\\Repositories\\Statuses</title>
<a xlink:href="Package.Repositories.Statuses.html" xlink:title="Statuses" target="_parent">
<polygon fill="none" stroke="black" points="531.5,-744 460.5,-744 460.5,-708 531.5,-708 531.5,-744"/>
<text text-anchor="middle" x="496" y="-723.2" font-family="Courier,monospace" font-size="11.00">Statuses</text>
</a>
</g>
<!-- \\Joomla\\Github\\Package -->
<g id="node19" class="node"><title>\\Joomla\\Github\\Package</title>
<a xlink:href="Package.html" xlink:title="«abstract»&lt;br/&gt;Package" target="_parent">
<polygon fill="none" stroke="black" points="319.5,-474 234.5,-474 234.5,-438 319.5,-438 319.5,-474"/>
<text text-anchor="start" x="243" y="-459.7" font-family="Courier,monospace" font-size="11.00">«abstract»</text>
<text text-anchor="start" x="253" y="-448.7" font-family="Courier,monospace" font-size="11.00">Package</text>
</a>
</g>
<!-- \\Joomla\\Github\\Package\\Repositories\\Statuses&#45;&gt;\\Joomla\\Github\\Package -->
<g id="edge12" class="edge"><title>\\Joomla\\Github\\Package\\Repositories\\Statuses&#45;&gt;\\Joomla\\Github\\Package</title>
<path fill="none" stroke="black" d="M460.332,-716.765C449.172,-712.616 437.301,-706.841 428,-699 355.834,-638.163 308.045,-533.417 288.289,-483.719"/>
<polygon fill="none" stroke="black" points="291.496,-482.311 284.606,-474.263 284.974,-484.852 291.496,-482.311"/>
</g>
<!-- \\Joomla\\Github\\Package\\Repositories\\Comments -->
<g id="node6" class="node"><title>\\Joomla\\Github\\Package\\Repositories\\Comments</title>
<a xlink:href="Package.Repositories.Comments.html" xlink:title="Comments" target="_parent">
<polygon fill="none" stroke="black" points="531.5,-690 460.5,-690 460.5,-654 531.5,-654 531.5,-690"/>
<text text-anchor="middle" x="496" y="-669.2" font-family="Courier,monospace" font-size="11.00">Comments</text>
</a>
</g>
<!-- \\Joomla\\Github\\Package\\Repositories\\Comments&#45;&gt;\\Joomla\\Github\\Package -->
<g id="edge14" class="edge"><title>\\Joomla\\Github\\Package\\Repositories\\Comments&#45;&gt;\\Joomla\\Github\\Package</title>
<path fill="none" stroke="black" d="M460.158,-661.854C449.233,-657.686 437.545,-652.129 428,-645 366.971,-599.418 316.961,-523.235 293.107,-482.92"/>
<polygon fill="none" stroke="black" points="296.075,-481.061 288.016,-474.183 290.027,-484.585 296.075,-481.061"/>
</g>
<!-- \\Joomla\\Github\\Package\\Repositories\\Merging -->
<g id="node7" class="node"><title>\\Joomla\\Github\\Package\\Repositories\\Merging</title>
<a xlink:href="Package.Repositories.Merging.html" xlink:title="Merging" target="_parent">
<polygon fill="none" stroke="black" points="528,-636 464,-636 464,-600 528,-600 528,-636"/>
<text text-anchor="middle" x="496" y="-615.2" font-family="Courier,monospace" font-size="11.00">Merging</text>
</a>
</g>
<!-- \\Joomla\\Github\\Package\\Repositories\\Merging&#45;&gt;\\Joomla\\Github\\Package -->
<g id="edge16" class="edge"><title>\\Joomla\\Github\\Package\\Repositories\\Merging&#45;&gt;\\Joomla\\Github\\Package</title>
<path fill="none" stroke="black" d="M463.891,-608.051C452.197,-603.656 439.065,-597.905 428,-591 378.07,-559.839 329.078,-511.443 301.293,-481.849"/>
<polygon fill="none" stroke="black" points="303.737,-479.336 294.367,-474.391 298.607,-484.1 303.737,-479.336"/>
</g>
<!-- \\Joomla\\Github\\Package\\Repositories\\Forks -->
<g id="node8" class="node"><title>\\Joomla\\Github\\Package\\Repositories\\Forks</title>
<a xlink:href="Package.Repositories.Forks.html" xlink:title="Forks" target="_parent">
<polygon fill="none" stroke="black" points="523,-582 469,-582 469,-546 523,-546 523,-582"/>
<text text-anchor="middle" x="496" y="-561.2" font-family="Courier,monospace" font-size="11.00">Forks</text>
</a>
</g>
<!-- \\Joomla\\Github\\Package\\Repositories\\Forks&#45;&gt;\\Joomla\\Github\\Package -->
<g id="edge18" class="edge"><title>\\Joomla\\Github\\Package\\Repositories\\Forks&#45;&gt;\\Joomla\\Github\\Package</title>
<path fill="none" stroke="black" d="M468.939,-554.281C456.417,-549.414 441.281,-543.238 428,-537 389.885,-519.098 347.803,-496.075 317.937,-479.153"/>
<polygon fill="none" stroke="black" points="319.501,-476.015 309.079,-474.109 316.037,-482.098 319.501,-476.015"/>
</g>
<!-- \\Joomla\\Github\\Package\\Repositories\\Downloads -->
<g id="node9" class="node"><title>\\Joomla\\Github\\Package\\Repositories\\Downloads</title>
<a xlink:href="Package.Repositories.Downloads.html" xlink:title="Downloads" target="_parent">
<polygon fill="none" stroke="black" points="534.5,-528 457.5,-528 457.5,-492 534.5,-492 534.5,-528"/>
<text text-anchor="middle" x="496" y="-507.2" font-family="Courier,monospace" font-size="11.00">Downloads</text>
</a>
</g>
<!-- \\Joomla\\Github\\Package\\Repositories\\Downloads&#45;&gt;\\Joomla\\Github\\Package -->
<g id="edge20" class="edge"><title>\\Joomla\\Github\\Package\\Repositories\\Downloads&#45;&gt;\\Joomla\\Github\\Package</title>
<path fill="none" stroke="black" d="M457.201,-500.594C421.902,-491.81 368.92,-478.625 329.713,-468.869"/>
<polygon fill="none" stroke="black" points="330.357,-465.422 319.808,-466.404 328.666,-472.215 330.357,-465.422"/>
</g>
<!-- \\Joomla\\Github\\Package\\Repositories\\Commits -->
<g id="node10" class="node"><title>\\Joomla\\Github\\Package\\Repositories\\Commits</title>
<a xlink:href="Package.Repositories.Commits.html" xlink:title="Commits" target="_parent">
<polygon fill="none" stroke="black" points="528,-474 464,-474 464,-438 528,-438 528,-474"/>
<text text-anchor="middle" x="496" y="-453.2" font-family="Courier,monospace" font-size="11.00">Commits</text>
</a>
</g>
<!-- \\Joomla\\Github\\Package\\Repositories\\Commits&#45;&gt;\\Joomla\\Github\\Package -->
<g id="edge22" class="edge"><title>\\Joomla\\Github\\Package\\Repositories\\Commits&#45;&gt;\\Joomla\\Github\\Package</title>
<path fill="none" stroke="black" d="M463.909,-456C429.013,-456 371.827,-456 330.08,-456"/>
<polygon fill="none" stroke="black" points="329.822,-452.5 319.822,-456 329.822,-459.5 329.822,-452.5"/>
</g>
<!-- \\Joomla\\Github\\Package\\Repositories\\Hooks -->
<g id="node11" class="node"><title>\\Joomla\\Github\\Package\\Repositories\\Hooks</title>
<a xlink:href="Package.Repositories.Hooks.html" xlink:title="Hooks" target="_parent">
<polygon fill="none" stroke="black" points="523,-420 469,-420 469,-384 523,-384 523,-420"/>
<text text-anchor="middle" x="496" y="-399.2" font-family="Courier,monospace" font-size="11.00">Hooks</text>
</a>
</g>
<!-- \\Joomla\\Github\\Package\\Repositories\\Hooks&#45;&gt;\\Joomla\\Github\\Package -->
<g id="edge24" class="edge"><title>\\Joomla\\Github\\Package\\Repositories\\Hooks&#45;&gt;\\Joomla\\Github\\Package</title>
<path fill="none" stroke="black" d="M468.655,-409.054C443.781,-415.667 405.417,-425.744 372,-434 358.252,-437.397 343.34,-440.948 329.529,-444.181"/>
<polygon fill="none" stroke="black" points="328.644,-440.794 319.699,-446.473 330.233,-447.611 328.644,-440.794"/>
</g>
<!-- \\Joomla\\Github\\Package\\Repositories\\Keys -->
<g id="node12" class="node"><title>\\Joomla\\Github\\Package\\Repositories\\Keys</title>
<a xlink:href="Package.Repositories.Keys.html" xlink:title="Keys" target="_parent">
<polygon fill="none" stroke="black" points="523,-366 469,-366 469,-330 523,-330 523,-366"/>
<text text-anchor="middle" x="496" y="-345.2" font-family="Courier,monospace" font-size="11.00">Keys</text>
</a>
</g>
<!-- \\Joomla\\Github\\Package\\Repositories\\Keys&#45;&gt;\\Joomla\\Github\\Package -->
<g id="edge26" class="edge"><title>\\Joomla\\Github\\Package\\Repositories\\Keys&#45;&gt;\\Joomla\\Github\\Package</title>
<path fill="none" stroke="black" d="M468.899,-355.598C455.943,-360.075 440.444,-366.536 428,-375 398.106,-395.332 403.362,-416.014 372,-434 359.124,-441.384 343.907,-446.292 329.509,-449.554"/>
<polygon fill="none" stroke="black" points="328.807,-446.125 319.712,-451.559 330.21,-452.983 328.807,-446.125"/>
</g>
<!-- \\Joomla\\Github\\Package\\Repositories\\Contents -->
<g id="node13" class="node"><title>\\Joomla\\Github\\Package\\Repositories\\Contents</title>
<a xlink:href="Package.Repositories.Contents.html" xlink:title="Contents" target="_parent">
<polygon fill="none" stroke="black" points="531.5,-312 460.5,-312 460.5,-276 531.5,-276 531.5,-312"/>
<text text-anchor="middle" x="496" y="-291.2" font-family="Courier,monospace" font-size="11.00">Contents</text>
</a>
</g>
<!-- \\Joomla\\Github\\Package\\Repositories\\Contents&#45;&gt;\\Joomla\\Github\\Package -->
<g id="edge28" class="edge"><title>\\Joomla\\Github\\Package\\Repositories\\Contents&#45;&gt;\\Joomla\\Github\\Package</title>
<path fill="none" stroke="black" d="M460.244,-302.618C448.951,-306.737 437.019,-312.651 428,-321 386.869,-359.079 415.924,-399.18 372,-434 360.048,-443.475 344.715,-448.994 329.916,-452.171"/>
<polygon fill="none" stroke="black" points="329.012,-448.778 319.803,-454.017 330.269,-455.665 329.012,-448.778"/>
</g>
<!-- \\Joomla\\Github\\Package\\Repositories\\Collaborators -->
<g id="node14" class="node"><title>\\Joomla\\Github\\Package\\Repositories\\Collaborators</title>
<a xlink:href="Package.Repositories.Collaborators.html" xlink:title="Collaborators" target="_parent">
<polygon fill="none" stroke="black" points="548,-258 444,-258 444,-222 548,-222 548,-258"/>
<text text-anchor="middle" x="496" y="-237.2" font-family="Courier,monospace" font-size="11.00">Collaborators</text>
</a>
</g>
<!-- \\Joomla\\Github\\Package\\Repositories\\Collaborators&#45;&gt;\\Joomla\\Github\\Package -->
<g id="edge30" class="edge"><title>\\Joomla\\Github\\Package\\Repositories\\Collaborators&#45;&gt;\\Joomla\\Github\\Package</title>
<path fill="none" stroke="black" d="M443.689,-255.068C437.892,-258.321 432.472,-262.254 428,-267 374.317,-323.978 429.885,-381.296 372,-434 360.41,-444.552 344.745,-450.331 329.527,-453.415"/>
<polygon fill="none" stroke="black" points="328.921,-449.968 319.639,-455.076 330.081,-456.871 328.921,-449.968"/>
</g>
<!-- \\Joomla\\Github\\Package\\Repositories -->
<g id="node15" class="node"><title>\\Joomla\\Github\\Package\\Repositories</title>
<a xlink:href="Package.Repositories.html" xlink:title="Repositories" target="_parent">
<polygon fill="none" stroke="black" points="545,-204 447,-204 447,-168 545,-168 545,-204"/>
<text text-anchor="middle" x="496" y="-183.2" font-family="Courier,monospace" font-size="11.00">Repositories</text>
</a>
</g>
<!-- \\Joomla\\Github\\Package\\Repositories&#45;&gt;\\Joomla\\Github\\Package -->
<g id="edge10" class="edge"><title>\\Joomla\\Github\\Package\\Repositories&#45;&gt;\\Joomla\\Github\\Package</title>
<path fill="none" stroke="black" d="M446.745,-196.676C439.723,-199.986 433.142,-204.322 428,-210 359.116,-286.064 445.108,-361.986 372,-434 360.736,-445.096 345.009,-451.001 329.638,-454.035"/>
<polygon fill="none" stroke="black" points="328.958,-450.599 319.639,-455.64 330.067,-457.511 328.958,-450.599"/>
</g>
<!-- \\Joomla\\Github\\Github -->
<g id="node17" class="node"><title>\\Joomla\\Github\\Github</title>
<a xlink:href="Github.html" xlink:title="Github" target="_parent">
<polygon fill="none" stroke="black" points="524.5,-150 467.5,-150 467.5,-114 524.5,-114 524.5,-150"/>
<text text-anchor="middle" x="496" y="-129.2" font-family="Courier,monospace" font-size="11.00">Github</text>
</a>
</g>
<!-- \\Joomla\\Github\\Object -->
<g id="node18" class="node"><title>\\Joomla\\Github\\Object</title>
<a xlink:href="Object.html" xlink:title="«abstract»&lt;br/&gt;Object" target="_parent">
<polygon fill="none" stroke="black" points="109.5,-474 24.5,-474 24.5,-438 109.5,-438 109.5,-474"/>
<text text-anchor="start" x="33" y="-459.7" font-family="Courier,monospace" font-size="11.00">«abstract»</text>
<text text-anchor="start" x="46.5" y="-448.7" font-family="Courier,monospace" font-size="11.00">Object</text>
</a>
</g>
<!-- \\Joomla\\Github\\Package&#45;&gt;\\Joomla\\Github\\Object -->
<g id="edge32" class="edge"><title>\\Joomla\\Github\\Package&#45;&gt;\\Joomla\\Github\\Object</title>
<path fill="none" stroke="black" d="M234.408,-456C201.39,-456 155.054,-456 119.659,-456"/>
<polygon fill="none" stroke="black" points="119.52,-452.5 109.52,-456 119.52,-459.5 119.52,-452.5"/>
</g>
<!-- \\Joomla\\Github\\Http -->
<g id="node20" class="node"><title>\\Joomla\\Github\\Http</title>
<a xlink:href="Http.html" xlink:title="Http" target="_parent">
<polygon fill="none" stroke="black" points="523,-96 469,-96 469,-60 523,-60 523,-96"/>
<text text-anchor="middle" x="496" y="-75.2" font-family="Courier,monospace" font-size="11.00">Http</text>
</a>
</g>
<!-- \\Joomla\\Http\\Http -->
<g id="node37" class="node"><title>\\Joomla\\Http\\Http</title>
<ellipse fill="none" stroke="black" cx="277" cy="-18" rx="94.7833" ry="18"/>
<text text-anchor="middle" x="277" y="-14.3" font-family="Times,serif" font-size="14.00" fill="gray">\Joomla\Http\Http</text>
</g>
<!-- \\Joomla\\Github\\Http&#45;&gt;\\Joomla\\Http\\Http -->
<g id="edge34" class="edge"><title>\\Joomla\\Github\\Http&#45;&gt;\\Joomla\\Http\\Http</title>
<path fill="none" stroke="black" d="M468.825,-70.7626C437.451,-62.0878 383.799,-47.2531 341.36,-35.5188"/>
<polygon fill="none" stroke="black" points="342.233,-32.1291 331.662,-32.8375 340.368,-38.876 342.233,-32.1291"/>
</g>
</g>
</svg>
